<?xml version="1.0" standalone="no"?>
<svg xmlns="http://www.w3.org/2000/svg" viewBox="0 0 94 69" width="94" height="69"><g fill="#cbb2f6" color="#cbb2f6" transform="translate(24.692 0) scale(0.44) "><svg width="100.0" height="100.0" x="0.0" y="0.0" viewBox="0 0 100 100"><path d="M63.738,11.716c-1.346-0.751-3.007-0.715-4.748-0.038c0.704,0.035,1.369,0.21,1.969,0.545  c3.614,2.016,3.597,8.938-0.041,15.459c-0.668,1.198-1.337,2.395-2.004,3.593c-1.269,2.274-3.193,4.725-4.067,7.161  c-0.211,0.587-0.81,2.75-0.689,3.273c0.458,1.991,4.407-5.333,4.681-5.824c1.62-2.903,3.24-5.807,4.858-8.71  C67.334,20.653,67.352,13.731,63.738,11.716z"></path><path d="M76.843,90.36c-0.569,0-1.07-0.114-1.513-0.341c-1.473-0.758-1.814-2.49-2.144-4.168c-0.296-1.511-0.576-2.938-1.579-3.457  c-1.5-0.775-4.547-0.281-6.369,0.018l-0.198,0.032c-1.651,0.269-3.417,0.817-5.287,1.399c-2.51,0.779-5.103,1.586-7.479,1.683  l-0.966,0.039l0.076-0.962c0.043-0.545,0.293-1.114,0.559-1.72c0.545-1.239,0.72-1.847,0.321-2.161  c-0.835-0.66-3.362-0.4-7.505,0.772L44.35,81.61c-0.361,0.1-0.882,0.262-1.517,0.46c-5.588,1.74-11.76,3.45-14.293,1.695  c-0.686-0.477-1.075-1.183-1.125-2.045c-0.027-0.472,0.334-0.877,0.807-0.904c0.477-0.003,0.877,0.333,0.905,0.807  c0.019,0.338,0.135,0.558,0.39,0.733c2.059,1.427,9.867-1.007,12.807-1.923c0.658-0.205,1.197-0.373,1.57-0.477l0.398-0.111  c3.681-1.042,7.323-1.816,9.035-0.47c1.507,1.19,0.712,3,0.187,4.197c-0.019,0.042-0.035,0.082-0.054,0.122  c1.835-0.261,3.836-0.884,5.784-1.49c1.845-0.572,3.752-1.166,5.522-1.453l0.197-0.032c2.164-0.353,5.434-0.884,7.432,0.152  c1.737,0.898,2.13,2.892,2.475,4.65c0.262,1.333,0.51,2.594,1.245,2.973c0.645,0.331,1.842,0.108,3.466-0.633  c0.431-0.198,0.938-0.01,1.135,0.423s0.007,0.939-0.423,1.136C78.913,90.05,77.782,90.36,76.843,90.36z"></path><path d="M33.647,60.737c-2.915-0.959-5.222-2.576-6.443-4.288c-6.1,13.144-8.838,23.231-6.269,24.664  c2.661,1.484,10.229-6.766,18.546-19.611C37.76,61.658,35.726,61.42,33.647,60.737z"></path><path d="M60.113,10.875c-3.425-1.91-9.332,2.159-13.195,9.086L31.771,47.119l0.053,0.029c-1.549,2.932-2.961,5.777-4.244,8.508  c1.598,1.378,3.888,2.653,6.576,3.537c2.167,0.713,4.274,1.065,6.114,1.093c1.272-1.998,2.558-4.096,3.844-6.282l0.052,0.029  l15.149-27.158C63.179,19.948,63.535,12.785,60.113,10.875z"></path></svg></g><path fill="#cbb2f6" fill-rule="nonzero" d="M1.25 11.69Q1.99 11.69 2.40 12.14Q2.81 12.60 2.81 13.26Q2.81 13.92 2.59 14.33L2.59 14.33Q3.65 15.19 5.03 15.19Q6.41 15.19 7.10 14.56Q7.80 13.92 7.80 12.82Q7.80 11.71 7.03 10.92Q6.26 10.13 5.17 9.60Q4.08 9.07 3 8.48Q1.92 7.90 1.15 6.91Q0.38 5.93 0.38 4.58L0.38 4.58Q0.38 2.74 1.61 1.69Q2.83 0.65 4.75 0.65Q6.67 0.65 8.08 1.56Q9.48 2.47 9.48 4.02Q9.48 5.57 8.23 5.57L8.23 5.57Q7.49 5.57 7.08 5.11Q6.67 4.66 6.67 3.94Q6.67 3.22 6.96 2.83L6.96 2.83Q6.12 2.06 4.90 2.06Q3.67 2.06 3.06 2.69Q2.45 3.31 2.45 4.25Q2.45 5.18 3 5.84Q3.55 6.50 4.37 6.92Q5.18 7.34 6.14 7.88Q7.10 8.42 7.92 8.95Q8.74 9.48 9.29 10.38Q9.84 11.28 9.84 12.43L9.84 12.43Q9.84 14.33 8.53 15.53Q7.22 16.73 5.18 16.73Q3.14 16.73 1.57 15.78Q0 14.83 0 13.13L0 13.13Q0 11.69 1.25 11.69L1.25 11.69ZM12.55 12.48L12.55 12.48Q12.55 12.48 12.60 7.13L12.60 7.13Q12.60 6.77 12.58 6.58L12.58 6.58Q11.57 6.58 11.14 6.60L11.14 6.60Q10.99 6.22 10.99 5.84Q10.99 5.47 11.04 5.28L11.04 5.28L12.50 5.28L12.38 3.50Q12.98 3.31 13.64 3.31Q14.30 3.31 14.74 3.41L14.74 3.41L14.52 5.26Q15.84 5.23 17.18 5.11L17.18 5.11Q17.33 5.42 17.33 5.80Q17.33 6.17 17.23 6.70L17.23 6.70Q16.34 6.65 14.42 6.60L14.42 6.60Q14.38 7.08 14.38 8.02L14.38 8.02L14.38 12.89Q14.38 13.51 14.44 13.91Q14.50 14.30 14.75 14.63Q15 14.95 15.48 14.95L15.48 14.95Q16.54 14.95 17.50 14.21L17.50 14.21Q18 14.93 18 16.15L18 16.15Q16.68 16.73 15.71 16.73Q14.74 16.73 14.16 16.48Q13.58 16.22 13.27 15.88Q12.96 15.53 12.79 14.90L12.79 14.90Q12.55 14.02 12.55 12.48ZM18.98 15.05L19.82 14.98Q20.04 12.58 20.04 10.57Q20.04 8.57 19.85 6.60L19.85 6.60L18.96 6.53Q18.89 6.14 18.89 5.74Q18.89 5.33 18.91 5.18L18.91 5.18Q20.14 5.16 21.89 4.97L21.89 4.97L22.01 5.09Q21.98 5.23 21.86 6.50L21.86 6.50Q22.42 5.81 23.15 5.35Q23.88 4.90 24.59 4.90Q25.30 4.90 25.82 5.40Q26.35 5.90 26.35 6.72L26.35 6.72Q26.35 8.06 25.22 8.06L25.22 8.06Q24.58 8.06 24.19 7.64Q23.81 7.22 23.81 6.53L23.81 6.53Q23.76 6.50 23.64 6.50L23.64 6.50Q22.75 6.50 21.82 7.85L21.82 7.85Q21.79 8.52 21.79 10.86Q21.79 13.20 22.01 14.98L22.01 14.98L22.90 15.05Q22.94 15.58 22.94 15.78Q22.94 15.98 22.87 16.39L22.87 16.39Q22.20 16.37 20.90 16.37Q19.61 16.37 19.01 16.39L19.01 16.39Q18.94 16.03 18.94 15.71Q18.94 15.38 18.98 15.05L18.98 15.05ZM31.68 11.04L31.68 11.04Q30.50 11.04 29.50 10.92L29.50 10.92Q29.54 15.00 32.21 15.00L32.21 15.00Q33.55 15.00 35.18 13.51L35.18 13.51Q35.88 14.23 36.07 15.41L36.07 15.41Q34.10 16.73 31.90 16.73Q29.69 16.73 28.61 15.20Q27.53 13.68 27.53 10.73Q27.53 7.78 28.74 6.34Q29.95 4.90 32.18 4.90L32.18 4.90Q33.84 4.90 34.92 5.90Q36 6.91 36.01 8.38Q36.02 9.84 35.76 10.46L35.76 10.46Q33.96 11.04 31.68 11.04ZM32.02 6.24L32.02 6.24Q29.78 6.24 29.52 9.53L29.52 9.53Q30.60 9.65 31.90 9.65Q33.19 9.65 33.91 9.41L33.91 9.41Q34.01 8.81 34.01 8.52L34.01 8.52Q34.01 7.46 33.47 6.85Q32.93 6.24 32.02 6.24ZM42.50 11.04L42.50 11.04Q41.33 11.04 40.32 10.92L40.32 10.92Q40.37 15.00 43.03 15.00L43.03 15.00Q44.38 15.00 46.01 13.51L46.01 13.51Q46.70 14.23 46.90 15.41L46.90 15.41Q44.93 16.73 42.72 16.73Q40.51 16.73 39.43 15.20Q38.35 13.68 38.35 10.73Q38.35 7.78 39.56 6.34Q40.78 4.90 43.01 4.90L43.01 4.90Q44.66 4.90 45.74 5.90Q46.82 6.91 46.84 8.38Q46.85 9.84 46.58 10.46L46.58 10.46Q44.78 11.04 42.50 11.04ZM42.84 6.24L42.84 6.24Q40.61 6.24 40.34 9.53L40.34 9.53Q41.42 9.65 42.72 9.65Q44.02 9.65 44.74 9.41L44.74 9.41Q44.83 8.81 44.83 8.52L44.83 8.52Q44.83 7.46 44.29 6.85Q43.75 6.24 42.84 6.24ZM49.90 12.48L49.90 12.48Q49.90 12.48 49.94 7.13L49.94 7.13Q49.94 6.77 49.92 6.58L49.92 6.58Q48.91 6.58 48.48 6.60L48.48 6.60Q48.34 6.22 48.34 5.84Q48.34 5.47 48.38 5.28L48.38 5.28L49.85 5.28L49.73 3.50Q50.33 3.31 50.99 3.31Q51.65 3.31 52.08 3.41L52.08 3.41L51.86 5.26Q53.18 5.23 54.53 5.11L54.53 5.11Q54.67 5.42 54.67 5.80Q54.67 6.17 54.58 6.70L54.58 6.70Q53.69 6.65 51.77 6.60L51.77 6.60Q51.72 7.08 51.72 8.02L51.72 8.02L51.72 12.89Q51.72 13.51 51.78 13.91Q51.84 14.30 52.09 14.63Q52.34 14.95 52.82 14.95L52.82 14.95Q53.88 14.95 54.84 14.21L54.84 14.21Q55.34 14.93 55.34 16.15L55.34 16.15Q54.02 16.73 53.05 16.73Q52.08 16.73 51.50 16.48Q50.93 16.22 50.62 15.88Q50.30 15.53 50.14 14.90L50.14 14.90Q49.90 14.02 49.90 12.48ZM60.12 14.98L60.98 15.05Q61.03 15.43 61.03 15.71Q61.03 15.98 60.96 16.39L60.96 16.39Q60.12 16.37 59.02 16.37Q57.91 16.37 57.10 16.39L57.10 16.39Q57.02 16.03 57.02 15.76Q57.02 15.48 57.07 15.05L57.07 15.05L57.91 14.98Q58.10 12.38 58.10 8.36Q58.10 4.34 57.89 2.35L57.89 2.35L57.07 2.28Q57.02 1.90 57.02 1.62Q57.02 1.34 57.10 0.94L57.10 0.94Q57.94 0.96 59.04 0.96Q60.14 0.96 60.96 0.94L60.96 0.94Q61.03 1.30 61.03 1.57Q61.03 1.85 60.98 2.28L60.98 2.28L60.07 2.35Q59.90 4.46 59.90 7.75L59.90 7.75Q61.20 7.90 63.02 7.90Q64.85 7.90 66.50 7.70L66.50 7.70Q66.46 3.89 66.29 2.35L66.29 2.35L65.47 2.28Q65.42 1.90 65.42 1.62Q65.42 1.34 65.50 0.94L65.50 0.94Q66.34 0.96 67.44 0.96Q68.54 0.96 69.36 0.94L69.36 0.94Q69.43 1.30 69.43 1.57Q69.43 1.85 69.38 2.28L69.38 2.28L68.47 2.35Q68.30 4.30 68.30 8.38Q68.30 12.46 68.52 14.98L68.52 14.98L69.38 15.05Q69.43 15.43 69.43 15.71Q69.43 15.98 69.36 16.39L69.36 16.39Q68.52 16.37 67.42 16.37Q66.31 16.37 65.50 16.39L65.50 16.39Q65.42 16.03 65.42 15.76Q65.42 15.48 65.47 15.05L65.47 15.05L66.31 14.98Q66.46 12.89 66.50 9.62L66.50 9.62Q64.97 9.46 63.02 9.46Q61.08 9.46 59.90 9.62L59.90 9.62Q59.95 13.03 60.12 14.98L60.12 14.98ZM72.96 13.27L72.96 13.27L72.98 10.70Q72.98 8.57 72.79 6.60L72.79 6.60L71.90 6.53Q71.83 6.14 71.83 5.74Q71.83 5.33 71.86 5.18L71.86 5.18Q73.08 5.16 74.83 4.97L74.83 4.97L74.95 5.09Q74.74 6.50 74.74 10.15L74.74 10.15L74.74 11.28Q74.74 13.30 75.11 14.15Q75.48 15.00 76.37 15.00L76.37 15.00Q77.62 15.00 79.08 13.54L79.08 13.54Q79.13 12.98 79.13 11.40L79.13 11.40L79.13 10.70Q79.13 8.57 78.94 6.60L78.94 6.60L78.05 6.53Q77.98 6.12 77.98 5.72Q77.98 5.33 78 5.18L78 5.18Q79.22 5.16 80.98 4.97L80.98 4.97L81.10 5.09Q80.88 6.50 80.88 10.15L80.88 10.15L80.88 10.92Q80.88 12.89 81.10 14.76L81.10 14.76L81.98 14.81Q82.03 15.34 82.03 15.59Q82.03 15.84 81.96 16.20L81.96 16.20Q81.02 16.25 79.34 16.44L79.34 16.44Q79.15 16.01 79.06 15.24L79.06 15.24Q77.26 16.73 75.74 16.73Q74.23 16.73 73.60 15.89Q72.96 15.05 72.96 13.27ZM91.34 9.86L91.34 9.86Q91.34 6.43 89.30 6.43L89.30 6.43Q87.84 6.43 86.52 7.99L86.52 7.99L86.52 14.45Q87.62 15.00 88.85 15.00L88.85 15.00Q91.34 15.00 91.34 9.86ZM86.52 6.53L86.52 6.53Q88.20 4.90 89.90 4.90Q91.61 4.90 92.50 6.29Q93.38 7.68 93.38 10.18L93.38 10.18Q93.38 13.56 92.22 15.14Q91.06 16.73 88.56 16.73L88.56 16.73Q87 16.73 84.41 16.10L84.41 16.10Q84.79 13.75 84.79 8.47Q84.79 3.19 84.67 1.63L84.67 1.63L83.71 1.56Q83.64 1.27 83.64 0.82Q83.64 0.36 83.66 0.22L83.66 0.22Q85.80 0.12 86.78 0L86.78 0L86.88 0.12Q86.54 3.00 86.52 6.53Z" transform="translate(0, 52)"></path></svg>